<svg width="99" height="110" viewBox="0 0 99 110" fill="none" xmlns="http://www.w3.org/2000/svg">
<path d="M39.1872 26.2177C43.0683 17.9199 45.0089 13.771 47.6201 12.5397C49.888 11.4701 52.5262 11.5259 54.747 12.6902C57.3038 14.0307 59.0675 18.2578 62.5947 26.7121L66.8712 36.9622C68.3713 40.5575 69.1213 42.3552 69.3949 44.2127C69.6373 45.8591 69.6041 47.5343 69.2967 49.1698C68.9497 51.015 68.1291 52.7816 66.4878 56.3147L48.0003 96.1114C45.6625 101.144 44.4935 103.66 42.6865 105.503C41.0889 107.132 39.1408 108.375 36.9903 109.137C34.5579 110 31.7834 110 26.2343 110H20.1178C13.4313 110 10.088 110 8.04009 108.591C6.25097 107.361 5.03893 105.456 4.68228 103.314C4.27404 100.862 5.69049 97.8337 8.5234 91.777L39.1872 26.2177Z" fill="white"/>
<path d="M75.8779 66.3848C77.3324 65.7764 78.984 65.8203 80.4102 66.5156L80.6055 66.6172C81.5632 67.1565 82.2491 68.0938 82.8564 69.1377C83.5201 70.2786 84.2473 71.8389 85.1592 73.793L91.8604 88.1523C93.2607 91.1531 94.3552 93.4969 95.0391 95.3965C95.6801 97.1771 96.0313 98.7502 95.8516 100.264L95.8086 100.566C95.4102 102.95 94.1198 105.085 92.21 106.546L91.8203 106.829C90.4778 107.752 88.8201 108.134 86.8096 108.317C84.7991 108.501 82.2126 108.5 78.9014 108.5H67.0488C65.4079 108.5 64.0737 108.502 63.0264 108.406C62.0445 108.317 61.1185 108.129 60.3223 107.636L60.165 107.532C58.9354 106.687 58.1024 105.378 57.8564 103.906C57.6904 102.912 57.9182 101.934 58.2744 100.944C58.6307 99.9547 59.1966 98.746 59.8906 97.2588L70.8408 73.793L71.4922 72.4023C72.1124 71.0856 72.6457 69.9935 73.1436 69.1377C73.7913 68.0243 74.5289 67.0329 75.5898 66.5156L75.8779 66.3848Z" stroke="white" stroke-width="3" stroke-linejoin="round"/>
</svg>
