<svg width="118" height="109" viewBox="0 0 118 109" fill="none" xmlns="http://www.w3.org/2000/svg">
<g style="mix-blend-mode:overlay">
<path fill-rule="evenodd" clip-rule="evenodd" d="M61.6422 2.56776C64.0604 0.490313 67.2914 -0.391564 70.435 0.16175L70.5847 0.189126C72.3394 0.523787 74.1565 1.56535 77.7907 3.64815C81.3682 5.69844 83.185 6.73959 84.3562 8.05093L84.4115 8.1134C86.5043 10.5138 87.3927 13.7212 86.8353 16.8417L86.8076 16.9903C86.5126 18.5144 85.6724 20.0859 84.0614 22.8717L76.5356 35.8118L89.4421 58.0033L104.364 58.0045C107.6 58.0124 109.391 58.0759 110.868 58.5844C113.938 59.641 116.35 62.0358 117.415 65.0827C118 66.7585 118 68.8414 118 73.007C118 77.1725 118 79.2554 117.415 80.9312L117.364 81.0736C116.275 84.0527 113.89 86.3894 110.868 87.4295L110.789 87.4562C109.76 87.7967 108.572 87.9278 106.85 87.9784C107.768 89.6429 108.298 90.804 108.529 91.9282L108.546 92.0097C109.149 95.1271 108.303 98.3458 106.248 100.772L106.15 100.887C104.98 102.228 103.163 103.269 99.5288 105.352C95.9514 107.402 94.1347 108.443 92.405 108.795L92.3228 108.811C89.1822 109.41 85.9398 108.57 83.4961 106.53L83.3804 106.432C82.1982 105.417 81.2472 103.909 79.6223 101.131L71.9908 88.0104L46.1769 88.0099L38.6974 100.868C37.0725 103.645 36.1215 105.153 34.9393 106.169C32.4828 108.279 29.1873 109.156 25.9969 108.548C24.2421 108.213 22.4249 107.171 18.7907 105.089C15.1566 103.006 13.3394 101.964 12.17 100.623L12.0713 100.508C10.0168 98.0825 9.17059 94.8639 9.77395 91.7464L9.79026 91.6649C10.0093 90.6021 10.4946 89.5062 11.3225 87.9832C9.5073 87.9362 8.27402 87.808 7.21108 87.4562L7.13171 87.4295C4.11023 86.3894 1.72532 84.0527 0.636249 81.0736L0.585365 80.9312C-3.55303e-05 79.2554 -2.95428e-10 77.1725 0 73.007C0 68.9064 3.00932e-05 66.824 0.558434 65.1615L0.585365 65.0827C1.63313 62.0834 3.98714 59.716 6.98825 58.6349L7.13171 58.5844C8.6089 58.0759 10.4 58.0124 13.636 58.0045L28.7233 58.004L41.6307 35.8128L34.2583 23.1349C32.6473 20.3491 31.8071 18.7776 31.5121 17.2535C30.8991 14.0865 31.7821 10.8151 33.9082 8.37662C35.0775 7.03547 36.8947 5.99413 40.5288 3.91137C44.163 1.82857 45.9803 0.787008 47.735 0.452347L47.8847 0.424971C51.0282 -0.128332 54.2593 0.75354 56.6774 2.83098L56.7405 2.88573C57.5257 3.57676 58.2143 4.49437 59.0777 5.87049C60.0193 4.34653 60.745 3.35684 61.5792 2.62264L61.6422 2.56776ZM62.2982 60.292L83.7044 97.0963C86.0337 101.101 86.5616 101.855 87.0246 102.253C88.1914 103.255 89.7567 103.671 91.2721 103.382C91.8734 103.268 92.7103 102.877 96.7446 100.565C100.779 98.2526 101.538 97.7286 101.939 97.2691L101.986 97.2146C102.962 96.0623 103.364 94.5336 103.077 93.0528L103.065 92.9958C102.935 92.4007 102.495 91.4997 100.239 87.6204L73.3207 41.3394L62.2982 60.292ZM17.7027 88.0094C15.7081 91.4556 15.3515 92.2266 15.2425 92.7895L15.2293 92.86C14.9646 94.3422 15.3866 95.8657 16.3806 97.0058L16.4193 97.0493C16.832 97.5 17.667 98.0618 21.575 100.302C25.4831 102.541 26.3908 102.978 26.9904 103.108L27.0476 103.119C28.5393 103.404 30.0794 103.005 31.2402 102.036L31.2951 101.989C31.7291 101.617 32.2203 100.931 34.1992 97.5465L34.6152 96.8331L39.7469 88.0098L17.7027 88.0094ZM15.1146 63.531C10.4562 63.531 9.53453 63.6079 8.95604 63.8071C7.49809 64.3089 6.35224 65.4464 5.84666 66.8936C5.64606 67.4679 5.56854 68.3829 5.56854 73.007C5.56854 77.6311 5.64605 78.5461 5.84666 79.1203L5.87074 79.1879C6.38805 80.6029 7.52087 81.7128 8.95604 82.2068L9.01146 82.2252C9.59587 82.4108 10.6019 82.4829 15.1146 82.4829H68.7756L57.7522 63.531H15.1146ZM103.679 82.4818C107.652 82.473 108.5 82.3941 109.044 82.2068L109.112 82.1829C110.538 81.6694 111.656 80.5449 112.153 79.1203L112.172 79.0653C112.359 78.4852 112.431 77.4865 112.431 73.007C112.431 68.5275 112.359 67.5287 112.172 66.9486L112.153 66.8936C111.656 65.469 110.538 64.3445 109.112 63.831L109.044 63.8071C108.502 63.6204 107.658 63.5411 103.716 63.5319L102.885 63.531H92.657L103.679 82.4818ZM69.4629 5.60444C67.9697 5.34165 66.4351 5.76057 65.2865 6.74729L65.2427 6.78585C64.7887 7.19548 64.2227 8.02424 61.9663 11.9036L35.1533 58.0039L57.1994 58.0033L78.5006 21.3796C80.8298 17.3749 81.2235 16.5441 81.339 15.9472C81.6301 14.4429 81.2107 12.8891 80.2009 11.7309C79.8002 11.2713 79.0407 10.7473 75.0064 8.43523C70.9722 6.12314 70.1353 5.73222 69.534 5.61755L69.4629 5.60444ZM52.9783 6.96399C51.8175 5.99528 50.2775 5.59631 48.7857 5.88077L48.7285 5.89234C48.1289 6.02171 47.2212 6.45865 43.3131 8.69845C39.4051 10.9382 38.5701 11.4999 38.1575 11.9507L38.1188 11.9941C37.1247 13.1343 36.7027 14.6578 36.9674 16.14L36.9807 16.2104C37.089 16.77 37.4417 17.5352 39.4046 20.9285L39.819 21.6428L44.8457 30.2854L55.8678 11.3357C53.9464 8.05352 53.4621 7.37903 53.0332 7.01052L52.9783 6.96399Z" fill="white" style="fill:white;fill-opacity:1;"/>
</g>
</svg>
