<svg width="301" height="260" viewBox="0 0 301 260" fill="none" xmlns="http://www.w3.org/2000/svg">
<path d="M115.471 0L23.1064 159.979L46.1709 159.984L138.564 0H161.658L69.2676 159.979L92.3486 159.995L184.722 0H207.816L300.192 160L288.66 179.974L288.646 180L196.27 20L184.737 39.9736L277.098 200L265.566 219.974L173.175 60L161.644 79.9736L254.02 239.974L242.473 259.974L242.457 260L57.7197 259.974L46.1885 240L230.925 239.974L219.363 220L34.626 219.974L23.0947 200L207.801 199.974L196.27 180H11.5469L0 160L92.376 0H115.471ZM115.471 160H184.722L150.081 100L115.471 160Z" fill="black"/>
</svg>
