<?xml version="1.0" encoding="UTF-8"?>
<!--Generator: Apple Native CoreSVG 232.5-->
<!DOCTYPE svg
PUBLIC "-//W3C//DTD SVG 1.1//EN"
       "http://www.w3.org/Graphics/SVG/1.1/DTD/svg11.dtd">
<svg version="1.1" xmlns="http://www.w3.org/2000/svg" xmlns:xlink="http://www.w3.org/1999/xlink" width="14.3828" height="14.3984">
 <g>
  <rect height="14.3984" opacity="0" width="14.3828" x="0" y="0"/>
  <path d="M2.45312 14.3984L11.9297 14.3984C13.5703 14.3984 14.3828 13.5859 14.3828 11.9766L14.3828 2.4375C14.3828 0.828125 13.5703 0.015625 11.9297 0.015625L2.45312 0.015625C0.820312 0.015625 0 0.820312 0 2.4375L0 11.9766C0 13.5938 0.820312 14.3984 2.45312 14.3984ZM2.46875 13.1406C1.6875 13.1406 1.25781 12.7266 1.25781 11.9141L1.25781 2.5C1.25781 1.6875 1.6875 1.27344 2.46875 1.27344L11.9141 1.27344C12.6875 1.27344 13.125 1.6875 13.125 2.5L13.125 11.9141C13.125 12.7266 12.6875 13.1406 11.9141 13.1406Z" fill="#000000" fill-opacity="0.85"/>
  <path d="M3.6875 4.96094C4.375 4.96875 4.95312 4.39062 4.95312 3.67969C4.95312 2.98438 4.375 2.42188 3.6875 2.42188C2.98438 2.42188 2.41406 2.98438 2.41406 3.67969C2.41406 4.39062 2.98438 4.94531 3.6875 4.96094ZM10.7109 4.96094C11.3984 4.96875 11.9688 4.39062 11.9688 3.67969C11.9688 2.98438 11.3984 2.42188 10.7109 2.42188C10.0078 2.42188 9.42969 2.98438 9.42969 3.67969C9.42969 4.39062 10.0078 4.94531 10.7109 4.96094ZM7.19531 8.47656C7.88281 8.47656 8.46094 7.90625 8.46094 7.19531C8.46094 6.5 7.88281 5.9375 7.19531 5.9375C6.49219 5.9375 5.92969 6.5 5.92969 7.19531C5.92969 7.90625 6.49219 8.47656 7.19531 8.47656ZM3.6875 11.9922C4.375 11.9922 4.95312 11.4219 4.95312 10.7188C4.95312 10.0156 4.375 9.45312 3.6875 9.45312C2.98438 9.45312 2.42188 10.0156 2.42188 10.7188C2.42188 11.4219 2.98438 11.9922 3.6875 11.9922ZM10.7109 11.9922C11.3984 11.9922 11.9688 11.4219 11.9688 10.7188C11.9688 10.0156 11.3984 9.45312 10.7109 9.45312C10.0078 9.45312 9.44531 10.0156 9.44531 10.7188C9.44531 11.4219 10.0078 11.9922 10.7109 11.9922Z" fill="#000000" fill-opacity="0.85"/>
 </g>
</svg>
