<?xml version="1.0" encoding="UTF-8"?>
<!--Generator: Apple Native CoreSVG 232.5-->
<!DOCTYPE svg
PUBLIC "-//W3C//DTD SVG 1.1//EN"
       "http://www.w3.org/Graphics/SVG/1.1/DTD/svg11.dtd">
<svg version="1.1" xmlns="http://www.w3.org/2000/svg" xmlns:xlink="http://www.w3.org/1999/xlink" width="14.3828" height="14.3984">
 <g>
  <rect height="14.3984" opacity="0" width="14.3828" x="0" y="0"/>
  <path d="M2.45312 14.3984L11.9297 14.3984C13.5703 14.3984 14.3828 13.5859 14.3828 11.9766L14.3828 2.4375C14.3828 0.828125 13.5703 0.015625 11.9297 0.015625L2.45312 0.015625C0.820312 0.015625 0 0.820312 0 2.4375L0 11.9766C0 13.5938 0.820312 14.3984 2.45312 14.3984ZM2.46875 13.1406C1.6875 13.1406 1.25781 12.7266 1.25781 11.9141L1.25781 2.5C1.25781 1.6875 1.6875 1.27344 2.46875 1.27344L11.9141 1.27344C12.6875 1.27344 13.125 1.6875 13.125 2.5L13.125 11.9141C13.125 12.7266 12.6875 13.1406 11.9141 13.1406Z" fill="#000000" fill-opacity="0.85"/>
  <path d="M7.20312 8.46875C7.89062 8.47656 8.46875 7.90625 8.46875 7.19531C8.46875 6.49219 7.89062 5.92969 7.20312 5.92969C6.5 5.92969 5.92969 6.49219 5.92969 7.19531C5.92969 7.90625 6.5 8.46094 7.20312 8.46875Z" fill="#000000" fill-opacity="0.85"/>
 </g>
</svg>
